<?xml version="1.0" encoding="UTF-8" standalone="no"?>
<!-- Created with Inkscape (http://www.inkscape.org/) -->

<svg
   version="1.1"
   id="svg2"
   width="1056"
   height="816"
   viewBox="0 0 1056 816"
   sodipodi:docname="logo-dark.svg"
   inkscape:version="1.2.2 (1:1.2.2+202212051552+b0a8486541)"
   xmlns:inkscape="http://www.inkscape.org/namespaces/inkscape"
   xmlns:sodipodi="http://sodipodi.sourceforge.net/DTD/sodipodi-0.dtd"
   xmlns="http://www.w3.org/2000/svg"
   xmlns:svg="http://www.w3.org/2000/svg">
  <defs
     id="defs6">
    <clipPath
       clipPathUnits="userSpaceOnUse"
       id="clipPath18">
      <path
         d="M 0,612 H 792 V 0 H 0 Z"
         id="path16" />
    </clipPath>
  </defs>
  <sodipodi:namedview
     id="namedview4"
     pagecolor="#ffffff"
     bordercolor="#000000"
     borderopacity="0.25"
     inkscape:showpageshadow="2"
     inkscape:pageopacity="0.0"
     inkscape:pagecheckerboard="0"
     inkscape:deskcolor="#d1d1d1"
     showgrid="false"
     inkscape:zoom="0.96568627"
     inkscape:cx="481.00508"
     inkscape:cy="351.04569"
     inkscape:window-width="1920"
     inkscape:window-height="955"
     inkscape:window-x="0"
     inkscape:window-y="0"
     inkscape:window-maximized="1"
     inkscape:current-layer="g10">
    <inkscape:page
       x="0"
       y="0"
       id="page8"
       width="1056"
       height="816" />
  </sodipodi:namedview>
  <g
     id="g10"
     inkscape:groupmode="layer"
     inkscape:label="Page 1"
     transform="matrix(1.3333333,0,0,-1.3333333,0,816)"
     style="display:inline">
    <g
       id="g12"
       style="opacity:1">
      <g
         id="g14"
         clip-path="url(#clipPath18)">
        <g
           id="g20"
           transform="translate(342.7927,529.7459)">
          <path
             d="m 0,0 c -0.286,1.792 -0.729,4.305 -1.393,7.286 -1.501,6.74 -2.286,10.125 -3.964,10.821 -2.546,1.057 -6.853,-2.269 -10.714,-7.393 1.307,-8.672 1.556,-10.705 1.5,-10.714 -0.161,-0.026 -0.797,16.454 -6.643,18 -1.734,0.458 -3.94,-0.399 -9.429,-6 -10.142,-10.349 -15.699,-20.785 -17.864,-24.96 -2.333,-4.498 -5.187,-10.326 -10.179,-22.072 -7.064,-16.624 -10.597,-24.937 -11.892,-30.214 -1.645,-6.699 -0.988,-7.532 -1.529,-40.397 -0.473,-28.704 -0.968,-27.68 -0.4,-34.603 0.655,-7.981 1.818,-15.5 1.714,-27.857 -0.061,-7.386 -0.54,-12.269 -0.671,-14.361 -1.395,-22.281 17.495,-38.436 30.535,-69.107 11.481,-27.003 2.841,-31.075 12.215,-50.465 8.045,-16.642 26.291,-37.723 72.857,-52.071 -1.494,18.657 -1.854,35.11 -1.714,48.857 0.261,25.794 2.171,31.611 -0.643,46.929 -2.793,15.202 -8.277,31.484 -18.857,44.357 -9.548,11.616 -15.021,11.339 -24.643,25.5 -1.38,2.03 -7.932,11.987 -12.857,26.571 -3.512,10.397 -2.255,11.495 -7.179,27.643 0,0 -2.818,9.239 -8.679,22.5 -4.872,11.024 -7.027,13.699 -10.285,15.429 -5.06,2.686 -12.499,2.762 -16.286,-1.072 -2.643,-2.675 -2.766,-6.505 -2.786,-9.214 -0.126,-17.486 3.745,-33.524 6,-44.357 2.963,-14.235 1.502,-11.643 3.429,-18.857 4.227,-15.829 8.879,-19.392 16.071,-36 9.003,-20.79 12.721,-40.625 12.429,-40.715 -0.082,-0.025 -0.607,1.441 -1.072,2.786"
             style="fill:#fbb03f;fill-opacity:1;fill-rule:nonzero;stroke:#231f20;stroke-width:4;stroke-linecap:butt;stroke-linejoin:miter;stroke-miterlimit:10;stroke-dasharray:none;stroke-opacity:1"
             id="path22" />
        </g>
        <g
           id="g24"
           transform="translate(328.2213,529.7459)">
          <path
             d="m 0,0 c -1.466,-0.703 -3.459,-1.927 -4.982,-4.071 -2.425,-3.413 -1.685,-6.375 -4.179,-7.875 -1.811,-1.09 -2.929,0.035 -5.143,-0.965 -2.138,-0.965 -3.195,-2.964 -4.5,-5.946 -2.989,-6.831 -3.619,-10.466 -5.858,-19.076 -0.424,-1.632 -1.182,-4.504 -0.409,-7.603 0.124,-0.497 0.218,-0.723 0.321,-1.285 0.562,-3.07 -0.507,-5.638 -0.884,-6.429 -2.902,-6.096 -3.9,-12.934 -6.187,-19.286 -1.72,-4.776 -3.461,-11.959 -2.977,-21.878"
             style="fill:none;stroke:#231f20;stroke-width:1;stroke-linecap:butt;stroke-linejoin:miter;stroke-miterlimit:10;stroke-dasharray:none;stroke-opacity:1"
             id="path26" />
        </g>
        <g
           id="g28"
           transform="translate(328.2213,529.7459)"
           style="fill:#00ffff">
          <path
             d="m 0,0 c 6.862,2.089 13.874,0.383 21.616,-1.5 7.422,-1.805 17.359,-4.223 20.491,-11.571 1.782,-4.182 -0.492,-5.612 1.527,-9.884 1.954,-4.136 5.063,-4.867 15.187,-11.09 11.164,-6.861 12.081,-8.858 12.456,-9.964 1.739,-5.139 -1.632,-10.55 -4.822,-15.67 -2.892,-4.642 -6.713,-10.774 -13.419,-12.455 -4.247,-1.064 -4.807,0.871 -12.536,-0.161 -2.459,-0.328 -4.865,-0.852 -7.714,0.241 -2.076,0.797 -2.939,1.897 -3.697,1.527 -1.415,-0.691 -0.837,-5.708 0.563,-9.562 2.903,-7.997 9.125,-10.387 16.232,-16.875 3.712,-3.39 8.714,-8.855 13.179,-17.438 1.863,3.142 4.961,7.428 9.883,11.25 10.063,7.812 21.048,8.483 25.233,8.518 1.171,1.837 1.083,2.782 0.803,3.295 -0.952,1.747 -5.583,-0.232 -11.25,-0.322 -2.97,-0.047 -11.647,-0.185 -15.911,5.465 -3.463,4.589 -2.867,11.48 -0.321,15.91 1.67,2.906 3.952,4.348 8.518,7.232 8.161,5.157 10.71,3.863 13.018,7.393 2.68,4.102 0.109,7.177 3.375,12.215 1.7,2.623 3.829,3.997 5.732,5.196 7.269,4.583 15.085,4.29 20.172,4.034 6.688,-0.337 12.468,-0.628 17.971,-4.677 4.844,-3.564 7.31,-8.45 9.643,-13.071 1.9,-3.766 2.846,-6.816 3.857,-10.072 1.105,-3.562 2.605,-8.493 3.184,-15.16 0.392,-4.505 -0.283,-2.374 -0.131,-11.893 0.055,-3.41 0.175,-5.811 -1.285,-6.75 -1.012,-0.651 -1.722,0.08 -5.143,0 -2.034,-0.048 -3.827,-0.11 -5.465,-1.125 -1.479,-0.917 -2.21,-2.228 -2.571,-2.893 -9.181,-16.913 -9.643,-18.482 -9.643,-18.482 -2.072,-6.73 -8.191,-26.608 -16.661,-42.911 -4.094,-7.881 -4.324,-6.432 -15,-25.071 -7.287,-12.724 -9.6,-17.626 -10.446,-19.447 -4.982,-10.725 -4.267,-11.915 -8.986,-21.513 -5.002,-10.175 -6.418,-10.084 -10.353,-18.826 -5.356,-11.899 -5.203,-17.555 -7.34,-17.679 -4.089,-0.237 -2.496,20.824 -16.032,40.766 -9.555,14.077 -15.688,12.583 -28.352,30.802 -3.883,5.586 -9.767,14.052 -14.209,26.534 -3.728,10.479 -2.812,13.593 -8.828,32.368 -1.443,4.501 -3.227,8.968 -6.795,17.902 -3.389,8.487 -4.741,11.257 -7.373,14.057 -4.281,4.553 -9.473,6.55 -12.964,7.5 0.55,8.939 1.858,21.635 5.25,36.536 C -23.647,-32.235 -17.523,-5.334 0,0"
             style="fill:#c1c2c5;fill-opacity:1;fill-rule:nonzero;stroke:#241c1c"
             id="path30" />
        </g>
        <g
           id="g32"
           transform="translate(328.2213,529.7459)">
          <path
             d="m 0,0 c 6.862,2.089 13.874,0.383 21.616,-1.5 7.422,-1.805 17.359,-4.223 20.491,-11.571 1.782,-4.182 -0.492,-5.612 1.527,-9.884 1.954,-4.136 5.063,-4.867 15.187,-11.09 11.164,-6.861 12.081,-8.858 12.456,-9.964 1.739,-5.139 -1.632,-10.55 -4.822,-15.67 -2.892,-4.642 -6.713,-10.774 -13.419,-12.455 -4.247,-1.064 -4.807,0.871 -12.536,-0.161 -2.459,-0.328 -4.865,-0.852 -7.714,0.241 -2.076,0.797 -2.939,1.897 -3.697,1.527 -1.415,-0.691 -0.837,-5.708 0.563,-9.562 2.903,-7.997 9.125,-10.387 16.232,-16.875 3.712,-3.39 8.714,-8.855 13.179,-17.438 1.863,3.142 4.961,7.428 9.883,11.25 10.063,7.812 21.048,8.483 25.233,8.518 1.171,1.837 1.083,2.782 0.803,3.295 -0.952,1.747 -5.583,-0.232 -11.25,-0.322 -2.97,-0.047 -11.647,-0.185 -15.911,5.465 -3.463,4.589 -2.867,11.48 -0.321,15.91 1.67,2.906 3.952,4.348 8.518,7.232 8.161,5.157 10.71,3.863 13.018,7.393 2.68,4.102 0.109,7.177 3.375,12.215 1.7,2.623 3.829,3.997 5.732,5.196 7.269,4.583 15.085,4.29 20.172,4.034 6.688,-0.337 12.468,-0.628 17.971,-4.677 4.844,-3.564 7.31,-8.45 9.643,-13.071 1.9,-3.766 2.846,-6.816 3.857,-10.072 1.105,-3.562 2.605,-8.493 3.184,-15.16 0.392,-4.505 -0.283,-2.374 -0.131,-11.893 0.055,-3.41 0.175,-5.811 -1.285,-6.75 -1.012,-0.651 -1.722,0.08 -5.143,0 -2.034,-0.048 -3.827,-0.11 -5.465,-1.125 -1.479,-0.917 -2.21,-2.228 -2.571,-2.893 -9.181,-16.913 -9.643,-18.482 -9.643,-18.482 -2.072,-6.73 -8.191,-26.608 -16.661,-42.911 -4.094,-7.881 -4.324,-6.432 -15,-25.071 -7.287,-12.724 -9.6,-17.626 -10.446,-19.447 -4.982,-10.725 -4.267,-11.915 -8.986,-21.513 -5.002,-10.175 -6.418,-10.084 -10.353,-18.826 -5.356,-11.899 -5.203,-17.555 -7.34,-17.679 -4.089,-0.237 -2.496,20.824 -16.032,40.766 -9.555,14.077 -15.688,12.583 -28.352,30.802 -3.883,5.586 -9.767,14.052 -14.209,26.534 -3.728,10.479 -2.812,13.593 -8.828,32.368 -1.443,4.501 -3.227,8.968 -6.795,17.902 -3.389,8.487 -4.741,11.257 -7.373,14.057 -4.281,4.553 -9.473,6.55 -12.964,7.5 0.55,8.939 1.858,21.635 5.25,36.536 C -23.647,-32.235 -17.523,-5.334 0,0 Z"
             style="fill:none;stroke:#231f20;stroke-width:1;stroke-linecap:butt;stroke-linejoin:miter;stroke-miterlimit:10;stroke-dasharray:none;stroke-opacity:1"
             id="path34" />
        </g>
        <g
           id="g36"
           transform="translate(388.1677,265.9602)">
          <path
             d="m 0,0 c -0.411,-30.107 -0.821,-60.214 -1.232,-90.321 43.594,3.905 62.005,18.959 70.821,31.5 13.726,19.522 3.148,39.925 17.679,77.142 7.133,18.27 15.902,39.959 26.357,64.286 -0.634,7.46 -1.461,19.385 -1.607,34.072 -0.44,44.236 7.232,51.058 1.607,74.25 -0.405,1.667 -7.073,16.861 -20.411,47.25 -1.203,2.741 -6.23,14.096 -13.018,24.75 -1.804,2.832 -1.984,2.869 -4.339,6.589 -6.381,10.079 -7.525,13.698 -9.803,13.661 -3.538,-0.059 -4.449,-8.975 -8.358,-9 -3.71,-0.024 -4.972,7.229 -8.357,7.071 -3.266,-0.153 -5.743,-7.981 -6.75,-13.5 -1.406,-7.713 -4.187,-22.961 6.429,-32.786 9.596,-8.881 23.056,-6.776 25.071,-6.428 3.952,-5.154 8.628,-12.432 12.215,-21.857 6.119,-16.08 6.026,-30.414 5.303,-38.733 -3.112,0.029 -7.647,-0.359 -12.286,-2.634 C 66.544,159.043 63.592,143.072 59.304,129.857 53.297,111.35 50.241,115.002 33.308,81.883 23.941,63.56 11.589,36.453 0,0"
             style="fill:#fbb03f;fill-opacity:1;fill-rule:nonzero;stroke:none"
             id="path38" />
        </g>
        <g
           id="g40"
           transform="translate(388.1677,265.9602)">
          <path
             d="m 0,0 c -0.411,-30.107 -0.821,-60.214 -1.232,-90.321 43.594,3.905 62.005,18.959 70.821,31.5 13.726,19.522 3.148,39.925 17.679,77.142 7.133,18.27 15.902,39.959 26.357,64.286 -0.634,7.46 -1.461,19.385 -1.607,34.072 -0.44,44.236 7.232,51.058 1.607,74.25 -0.405,1.667 -7.073,16.861 -20.411,47.25 -1.203,2.741 -6.23,14.096 -13.018,24.75 -1.804,2.832 -1.984,2.869 -4.339,6.589 -6.381,10.079 -7.525,13.698 -9.803,13.661 -3.538,-0.059 -4.449,-8.975 -8.358,-9 -3.71,-0.024 -4.972,7.229 -8.357,7.071 -3.266,-0.153 -5.743,-7.981 -6.75,-13.5 -1.406,-7.713 -4.187,-22.961 6.429,-32.786 9.596,-8.881 23.056,-6.776 25.071,-6.428 3.952,-5.154 8.628,-12.432 12.215,-21.857 6.119,-16.08 6.026,-30.414 5.303,-38.733 -3.112,0.029 -7.647,-0.359 -12.286,-2.634 C 66.544,159.043 63.592,143.072 59.304,129.857 53.297,111.35 50.241,115.002 33.308,81.883 23.941,63.56 11.589,36.453 0,0 Z"
             style="fill:none;stroke:#231f20;stroke-width:4;stroke-linecap:butt;stroke-linejoin:miter;stroke-miterlimit:10;stroke-dasharray:none;stroke-opacity:1"
             id="path42" />
        </g>
        <g
           id="g44"
           transform="translate(472.6498,437.0674)">
          <path
             d="m 0,0 c 12.096,-4.714 15.856,-11.087 17.25,-14.571 1.701,-4.252 1.611,-7.511 -3.857,-32.143 -3.13,-14.099 -2.155,-11.904 -4.179,-19.929 -2.944,-11.678 -4.9,-19.435 -9.321,-28.928 -4.414,-9.479 -6.197,-9.759 -8.357,-17.036 -2.471,-8.32 -1.221,-11.591 -2.893,-19.286 -1.168,-5.377 -3.772,-12.957 -10.286,-21.536"
             style="fill:none;stroke:#231f20;stroke-width:4;stroke-linecap:butt;stroke-linejoin:miter;stroke-miterlimit:10;stroke-dasharray:none;stroke-opacity:1"
             id="path46" />
        </g>
        <g
           id="g48"
           transform="translate(445.8641,540.1388)">
          <path
             d="M 0,0 C -1.015,-3.051 -4.274,-14.085 0.643,-26.679 5.079,-38.04 13.499,-43.831 16.393,-45.643"
             style="fill:none;stroke:#231f20;stroke-width:4;stroke-linecap:butt;stroke-linejoin:miter;stroke-miterlimit:10;stroke-dasharray:none;stroke-opacity:1"
             id="path50" />
        </g>
      </g>
    </g>
    <text
       xml:space="preserve"
       transform="matrix(1,0,0,-0.53157245,241.15453,130.18172)"
       style="font-variant:normal;font-weight:normal;font-stretch:normal;font-size:67.7236px;font-family:'Comic Sans MS';-inkscape-font-specification:ComicSansMS;writing-mode:lr-tb;white-space:pre;inline-size:387.147;display:inline;fill:#c1c2c5;fill-opacity:1;fill-rule:nonzero;stroke:none"
       id="text54"><tspan
         x="0"
         y="0"
         id="tspan6787">BID4PAWS</tspan></text>
  </g>
</svg>
